# xmcd CD database file
#
# Track frame offsets:
#	150
#	9670
#	22182
#	32985
#	53512
#	69440
#	85115
#	102470
#	122150
#	145392
#	165770
#
# Disc length: 2385 seconds
#
# Revision: 0
# Processed by: cddbd v1.5.1PL0 Copyright (c) Steve Scherf et al.
# Submitted via: CDex 1.51
#
DISCID=8c094f0b
DTITLE=NUMBER GIRL - SAPPUKEI
DYEAR=2000
DGENRE=Rock
TTITLE0=01-BLUTAL NUMBER GIRL
TTITLE1=02-ZEGEN VS UNDERCOVER
TTITLE2=03-SASU-YOU
TTITLE3=04-URBAN GUITAR SAYONARA
TTITLE4=05-ABSTRACT TRUTH
TTITLE5=06-TATOOあり
TTITLE6=07-SAPPUKEI
TTITLE7=08-U-REI
TTITLE8=09-YARUSE NAKIKOのBEAT
TTITLE9=10-TRANMOLINE GIRL
TTITLE10=11-BRUTAL MAN
EXTD=YEAR: 2000
EXTT0=
EXTT1=
EXTT2=
EXTT3=
EXTT4=
EXTT5=
EXTT6=
EXTT7=
EXTT8=
EXTT9=
EXTT10=
PLAYORDER=
